# AST/ASF file generated using VICON BodyLanguage
# -----------------------------------------------
:version 1.10
:name VICON
:units
  mass 1.0
  length 0.45
  angle deg
:documentation
   .ast/.asf automatically generated from VICON data using
   VICON BodyBuilder and BodyLanguage model FoxedUp or BRILLIANT.MOD
:root
   order TX TY TZ RX RY RZ
   axis XYZ
   position 0 0 0  
   orientation 0 0 0 
:bonedata
  begin
     id 1 
     name lhipjoint
     direction 0.624716 -0.669793 0.401383 
     length 2.38238 
     axis 0 0 0  XYZ
  end
  begin
     id 2 
     name lfemur
     direction 0.34202 -0.939693 0  
     length 6.4574  
     axis 0 0 20  XYZ
    dof rx ry rz
    limits (-160.0 20.0)
           (-70.0 70.0)
           (-60.0 70.0)
  end
  begin
     id 3 
     name ltibia
     direction 0.34202 -0.939693 0   
     length 7.68739   
     axis 0 0 20   XYZ
    dof rx
    limits (-10.0 170.0)
  end
  begin
     id 4 
     name lfoot
     direction 0.0681309 -0.187188 0.979959   
     length 2.46615   
     axis -90 7.62852e-016 20   XYZ
    dof rx rz
    limits (-45.0 90.0)
           (-70.0 20.0)
  end
  begin
     id 5 
     name ltoes
     direction 1.53566e-011 -4.21819e-011 1   
     length 1.2376   
     axis -90 7.62852e-016 20   XYZ
    dof rx
    limits (-90.0 20.0)
  end
  begin
     id 6 
     name rhipjoint
     direction -0.644473 -0.655875 0.393043   
     length 2.43293  
     axis 0 0 0  XYZ 
  end
  begin
     id 7 
     name rfemur
     direction -0.34202 -0.939693 0   
     length 6.7025   
     axis 0 0 -20   XYZ
    dof rx ry rz
    limits (-160.0 20.0)
           (-70.0 70.0)
           (-70.0 60.0)
  end
  begin
     id 8 
     name rtibia
     direction -0.34202 -0.939693 0   
     length 7.80547   
     axis 0 0 -20   XYZ
    dof rx
    limits (-10.0 170.0)
 end
 begin
     id 9 
     name rfoot
     direction -0.0756734 -0.207911 0.975216   
     length 2.40315  
     axis -90 -7.62852e-016 -20   XYZ
    dof rx rz
    limits (-45.0 90.0)
           (-20.0 70.0)
  end
  begin
     id 10 
     name rtoes
     direction -1.5353e-011 -4.21879e-011 1   
     length 1.20477   
     axis -90 -7.62852e-016 -20   XYZ
    dof rx
    limits (-90.0 20.0)
  end
  begin
     id 11 
     name lowerback
     direction 0.0160353 0.987463 -0.157037   
     length 2.18572   
     axis 0 0 0   XYZ
    dof rx ry rz
    limits (-20.0 45.0)
           (-30.0 30.0)
           (-30.0 30.0)
  end
  begin
     id 12 
     name upperback
     direction -0.00499661 0.999756 0.0215076   
     length 2.18016   
     axis 0 0 0   XYZ
    dof rx ry rz
    limits (-20.0 45.0)
           (-30.0 30.0)
           (-30.0 30.0)
  end
  begin
     id 13 
     name thorax
     direction -0.00921346 0.995333 0.0960619   
     length 2.24923   
     axis 0 0 0   XYZ
    dof rx ry rz
    limits (-20.0 45.0)
           (-30.0 30.0)
           (-30.0 30.0)
  end
  begin
     id 14 
     name lowerneck
     direction 0.0274184 0.991181 0.12965   
     length 1.70911   
     axis 0 0 0   XYZ
    dof rx ry rz
    limits (-20.0 45.0)
           (-30.0 30.0)
           (-30.0 30.0)
  end
  begin
     id 15 
     name upperneck
     direction 0.0015627 0.999959 -0.00893559   
     length 1.69312   
     axis 0 0 0   XYZ
    dof rx ry rz
    limits (-20.0 45.0)
           (-30.0 30.0)
           (-30.0 30.0)
  end
  begin
     id 16
     name head
     direction -0.00230242 0.999856 -0.0168327  
     length 1.80241  
     axis 0 0 0   XYZ
    dof rx ry rz
    limits (-20.0 45.0)
           (-30.0 30.0)
           (-30.0 30.0)
  end
  begin
     id 17 
     name lclavicle
     direction 0.955523 0.290741 -0.0494489  
     length 3.84275  
     axis 0 0 0   XYZ
    dof ry rz
    limits (-20.0 10.0)
           (0.0 20.0)
  end
  begin
     id 18 
     name lhumerus
     direction 1 -4.48967e-011 -3.18382e-028   
     length 5.17714   
     axis 180 -30 -90   XYZ
    dof rx ry rz
    limits (-60.0 90.0)
           (-90.0 90.0)
           (-90.0 90.0)
  end
  begin
     id 19
     name lradius
     direction 1 -4.48968e-011 -2.22911e-027   
     length 3.43679   
     axis 180 -30 -90   XYZ
    dof rx
    limits (-10.0 170.0)
  end
  begin
     id 20
     name lwrist
     direction 1 -4.48951e-011 -6.32245e-027   
     length 1.7184   
     axis 3.57107e-015 90 90   XYZ
    dof ry
    limits (-180.0 0.0)
 end
  begin
     id 21 
     name lhand
     direction 1 -4.48924e-011 -1.26431e-026   
     length 0.573117   
     axis 8.06912e-015 90 90   XYZ
    dof rx rz
    limits (-90.0 90.0)
           (-45.0 45.0)
  end
  begin
     id 22 
     name lfingers
     direction 1 -4.49001e-011 -2.52965e-026   
     length 0.462062   
     axis 1.61381e-014 90 90   XYZ
    dof rx
    limits (0.0 90.0)
  end
  begin
     id 23
     name lthumb
     direction 0.707107 -6.35008e-011 0.707107   
     length 0.663431   
     axis -90 45 -1.62303e-014   XYZ
    dof rx rz
    limits (-45.0 45.0)
           (-45.0 45.0)
  end
  begin
     id 24 
     name rclavicle
     direction -0.963917 0.256881 -0.0698287   
     length 3.73057  
     axis 0 0 0   XYZ 
    dof ry rz
    limits (-10.0 20.0)
           (-20.0 0.0)
  end
  begin
     id 25 
     name rhumerus
     direction -1 -4.48962e-011 -2.73982e-027  
     length 5.23908   
     axis 180 30 90   XYZ
    dof rx ry rz
    limits (-90.0 60.0)
           (-90.0 90.0)
           (-90.0 90.0)
  end
  begin
     id 26 
     name rradius
     direction -1 -4.48968e-011 -4.33218e-027   
     length 3.46485   
     axis 180 30 90   XYZ
    dof rx
    limits (-10.0 170.0)
  end
  begin
     id 27 
     name rwrist
     direction -1 -4.48989e-011 -6.32372e-027   
     length 1.73243   
     axis 3.57107e-015 -90 -90   XYZ
    dof ry
    limits (-180.0 0.0)
  end
  begin
     id 28
     name rhand
     direction -1 -4.48948e-011 -1.26448e-026   
     length 0.608752   
     axis 8.06912e-015 -90 -90   XYZ
    dof rx rz
    limits (-90.0 90.0)
           (-45.0 45.0)
  end
  begin
     id 29
     name rfingers
     direction -1 -4.48962e-011 -2.52913e-026   
     length 0.490792   
     axis 1.61381e-014 -90 -90   XYZ
    dof rx
    limits (0.0 90.0)
  end
  begin
     id 30
     name rthumb
     direction -0.707107 -6.34878e-011 0.707107   
     length 0.704682   
     axis -90 -45 1.62303e-014   XYZ
    dof rx rz
    limits (-45.0 45.0)
           (-45.0 45.0)
  end
:hierarchy
  begin
    root lhipjoint rhipjoint lowerback
    lhipjoint lfemur
    lfemur ltibia
    ltibia lfoot
    lfoot ltoes
    rhipjoint rfemur
    rfemur rtibia
    rtibia rfoot
    rfoot rtoes
    lowerback upperback
    upperback thorax
    thorax lowerneck lclavicle rclavicle
    lowerneck upperneck
    upperneck head
    lclavicle lhumerus
    lhumerus lradius
    lradius lwrist
    lwrist lhand lthumb
    lhand lfingers
    rclavicle rhumerus
    rhumerus rradius
    rradius rwrist
    rwrist rhand rthumb
    rhand rfingers
  end

#!OML:ASF G:\JayActor3\Patient Classification 1\Patient 1\Session 6\male.ASF
:FULLY-SPECIFIED
:DEGREES
320
root 3.73447 16.037 -3.56407 -53.336 -77.0653 58.9436
lowerback -0.143547 1.79655 3.70137
upperback -1.8726 2.20787 -7.25999
thorax -1.43232 0.948006 -9.7762
lowerneck -4.5399 11.2167 6.08953
upperneck 3.98767 16.5144 -32.6591
head 5.58119 6.8345 -10.3821
rclavicle 2.16582e-014 -1.27222e-014
rhumerus -84.9977 26.6079 -128.152
rradius 79.2833
rwrist 17.068
rhand -60.7818 35.1861
rfingers 7.12502
rthumb -32.8958 8.16394
lclavicle 2.16582e-014 -1.27222e-014
lhumerus -97.1068 -50.1922 115.804
lradius 94.0766
lwrist -3.93537
lhand -47.2185 -53.0105
lfingers 7.12502
lthumb -19.9173 -24.0112
rfemur -31.9039 -0.760379 -3.41881
rtibia 52.3074
rfoot -19.0568 -4.67267
rtoes -8.90361
lfemur -6.50837 39.2765 -35.4448
ltibia 19.6692
lfoot -5.3332 -33.4427
ltoes 25.0281
321
root 3.73425 16.031 -3.5738 -52.5622 -76.8256 57.9966
lowerback -0.175616 1.82555 3.69003
upperback -1.79021 2.24942 -7.30472
thorax -1.31888 0.975838 -9.81537
lowerneck -4.52052 11.1839 6.04675
upperneck 4.13282 16.5077 -32.6119
head 5.60942 6.82077 -10.3628
rclavicle 1.40423e-014 -2.5842e-014
rhumerus -85.0198 26.7384 -128.357
rradius 79.261
rwrist 16.9282
rhand -60.7954 35.1208
rfingers 7.12502
rthumb -32.9087 8.10134
lclavicle 1.40423e-014 -2.5842e-014
lhumerus -96.9348 -50.3574 115.623
lradius 94.1052
lwrist -3.87782
lhand -47.218 -52.9634
lfingers 7.12502
lthumb -19.9169 -23.964
rfemur -31.5549 -0.197088 -3.56795
rtibia 52.3128
rfoot -19.4441 -5.02782
rtoes -9.10853
lfemur -6.2321 38.9232 -35.3421
ltibia 19.6616
lfoot -5.54253 -33.3037
ltoes 24.8678
322
root 3.73284 16.025 -3.58402 -51.7687 -76.5874 57.0203
lowerback -0.208427 1.84642 3.68367
upperback -1.71492 2.27998 -7.34448
thorax -1.21457 0.99753 -9.85222
lowerneck -4.50257 11.1475 6.00478
upperneck 4.31364 16.5036 -32.5429
head 5.64658 6.80544 -10.3359
rclavicle -3.06874e-015 4.25399e-014
rhumerus -85.0407 26.8602 -128.546
rradius 79.2483
rwrist 16.8127
rhand -60.8147 35.0885
rfingers 7.12502
rthumb -32.9271 8.07296
lclavicle -3.06874e-015 4.25399e-014
lhumerus -96.7739 -50.4846 115.45
lradius 94.1241
lwrist -3.81819
lhand -47.2482 -52.8896
lfingers 7.12502
lthumb -19.9458 -23.8932
rfemur -31.1769 0.385808 -3.69
rtibia 52.2997
rfoot -19.8478 -5.40911
rtoes -9.25164
lfemur -5.94307 38.5613 -35.216
ltibia 19.6621
lfoot -5.77005 -33.1619
ltoes 24.6846
323
root 3.73021 16.0193 -3.59489 -50.9678 -76.3571 56.0283
lowerback -0.241851 1.86079 3.6841
upperback -1.64642 2.30176 -7.37922
thorax -1.11864 1.01424 -9.88777
lowerneck -4.48157 11.1088 5.96857
upperneck 4.51823 16.5011 -32.4614
head 5.68969 6.78932 -10.3059
rclavicle 3.23243e-014 1.55052e-014
rhumerus -85.0613 26.9738 -128.724
rradius 79.2477
rwrist 16.7149
rhand -60.8388 35.1039
rfingers 7.12502
rthumb -32.95 8.09316
lclavicle 3.23243e-014 1.55052e-014
lhumerus -96.6196 -50.5737 115.279
lradius 94.1343
lwrist -3.77038
lhand -47.3071 -52.8074
lfingers 7.12502
lthumb -20.0025 -23.8169
rfemur -30.7748 0.992334 -3.77705
rtibia 52.2672
rfoot -20.2668 -5.83784
rtoes -9.40575
lfemur -5.6494 38.1928 -35.0634
ltibia 19.6796
lfoot -6.01563 -33.0168
ltoes 24.4852
324
root 3.72644 16.0135 -3.60636 -50.1665 -76.1365 55.0297
lowerback -0.279603 1.87039 3.69407
upperback -1.58391 2.31712 -7.40985
thorax -1.02756 1.0273 -9.92455
lowerneck -4.4563 11.0687 5.93879
upperneck 4.74252 16.5003 -32.3713
head 5.73793 6.77288 -10.2744
rclavicle -1.79838e-014 2.74323e-014
rhumerus -85.08 27.0798 -128.89
rradius 79.2551
rwrist 16.634
rhand -60.8756 35.1396
rfingers 7.12502
rthumb -32.985 8.13621
lclavicle -1.79838e-014 2.74323e-014
lhumerus -96.4634 -50.628 115.099
lradius 94.1403
lwrist -3.71719
lhand -47.361 -52.7431
lfingers 7.12502
lthumb -20.0543 -23.7581
rfemur -30.3503 1.61443 -3.82692
rtibia 52.2168
rfoot -20.6991 -6.3206
rtoes -9.62606
lfemur -5.35662 37.8195 -34.8857
ltibia 19.72
lfoot -6.27583 -32.8707
ltoes 24.2827
